<?xml version="1.0" standalone="no"?>
<!DOCTYPE svg PUBLIC "-//W3C//DTD SVG 20010904//EN"
 "http://www.w3.org/TR/2001/REC-SVG-20010904/DTD/svg10.dtd">
<svg version="1.0" xmlns="http://www.w3.org/2000/svg"
 width="512.000000pt" height="512.000000pt" viewBox="0 0 512.000000 512.000000"
 preserveAspectRatio="xMidYMid meet">
<metadata>
Created by potrace 1.16, written by Peter Selinger 2001-2019
</metadata>
<g transform="translate(0.000000,512.000000) scale(0.100000,-0.100000)"
fill="#000000" stroke="none">
<path d="M1985 4455 c-27 -6 -59 -15 -70 -19 -11 -4 -33 -13 -50 -19 -16 -6
-34 -17 -38 -24 -4 -7 -14 -13 -20 -13 -16 0 -107 -92 -107 -108 0 -7 -6 -15
-14 -18 -7 -3 -19 -24 -27 -47 -7 -23 -20 -53 -28 -67 -14 -20 -17 -86 -21
-425 l-5 -400 -130 -12 c-71 -7 -139 -17 -150 -22 -11 -5 -45 -15 -75 -21 -30
-6 -73 -19 -95 -29 -22 -11 -76 -37 -120 -58 -44 -20 -94 -48 -111 -60 -17
-13 -36 -23 -41 -23 -6 0 -13 -7 -17 -15 -3 -8 -13 -15 -22 -15 -20 0 -274
-253 -274 -273 0 -9 -3 -17 -7 -19 -16 -6 -71 -95 -107 -173 -21 -44 -46 -96
-56 -116 -10 -19 -22 -53 -25 -75 -4 -21 -11 -44 -16 -49 -4 -6 -13 -51 -19
-100 -6 -50 -16 -104 -21 -121 -12 -41 -12 -231 1 -239 5 -3 10 -23 10 -44 0
-45 17 -148 30 -176 5 -11 14 -38 21 -60 6 -22 17 -51 24 -65 7 -14 34 -70 61
-125 48 -99 82 -157 97 -163 4 -2 7 -9 7 -16 0 -7 9 -21 20 -31 17 -15 20 -31
20 -92 0 -89 20 -263 30 -263 4 0 11 -17 15 -37 4 -21 25 -69 48 -108 23 -38
45 -78 49 -88 4 -9 12 -17 18 -17 5 0 10 -6 10 -13 0 -22 116 -129 136 -125
18 3 53 59 69 108 4 13 23 44 41 70 19 26 34 51 34 55 0 4 19 29 41 56 43 51
49 53 104 29 18 -8 98 -28 135 -34 9 -1 21 -5 27 -9 6 -4 60 -12 120 -18 121
-12 276 -4 362 18 31 8 76 19 101 24 25 6 54 14 65 19 11 4 36 14 55 20 33 12
176 81 247 120 45 24 116 83 198 165 74 73 165 177 165 189 0 3 12 25 27 49
37 58 93 173 93 192 0 8 4 15 9 15 5 0 14 24 21 53 6 28 15 61 20 72 5 11 14
46 20 77 6 32 16 60 21 63 5 4 9 26 9 49 0 24 3 71 6 105 l7 61 391 0 391 0
70 -65 c39 -35 74 -64 78 -65 7 0 127 -103 229 -196 20 -19 39 -34 43 -34 4 0
42 -32 85 -71 64 -58 84 -70 107 -67 l28 3 3 246 c2 243 3 246 25 257 12 6 41
13 64 15 63 7 123 40 187 103 48 48 91 109 101 144 4 14 11 30 16 35 20 26 24
153 24 915 0 776 -3 887 -23 913 -5 7 -15 32 -22 56 -8 24 -20 45 -27 48 -7 3
-13 10 -13 17 0 15 -92 106 -107 106 -7 0 -16 6 -20 13 -4 7 -24 19 -43 26
-19 7 -44 17 -55 21 -71 28 -155 30 -1268 29 -838 -1 -1155 -5 -1192 -14z"/>
</g>
</svg>
